<?xml version="1.0" encoding="UTF-8"?>
<svg id="Layer_1" data-name="Layer 1" xmlns="http://www.w3.org/2000/svg" viewBox="0 0 512 512">
  <defs>
    <style>
      .cls-1 {
        fill: #fd7818;
      }

      .cls-2 {
        fill: #9e236f;
      }
    </style>
  </defs>
  <path class="cls-2" d="M148.52,299.1c-.09,2.95.08,5.81,0,8.7,0,59.26,47.95,107.32,107.31,107.32s107.64-48.06,107.64-107.32c-.07-2.89.08-5.75,0-8.7-4.53,55.7-51.67,98.58-107.64,98.6-55.97-.02-102.77-42.9-107.31-98.6ZM148.52,271.65c-.09,2.84.08,5.61,0,8.39,0,59.27,47.95,107.32,107.31,107.32s107.64-48.05,107.64-107.32c-.07-2.78,0-5.55,0-8.39-4.38,55.84-51.55,98.93-107.64,98.93-56.1-.01-102.92-43.08-107.31-98.93ZM148.52,243.46c0,2.72.08,5.63,0,8.48,0,59.26,47.95,107.32,107.31,107.32s107.64-48.06,107.64-107.32c-.07-2.85-.13-5.75-.17-8.48-4.42,55.81-51.42,98.84-107.47,98.85-56.07-.01-102.89-43.05-107.31-98.85Z"/>
  <path class="cls-1" d="M363.49,197.09c-65.3,0-98.11,24.39-102.45,85.39-.19,2.56-.31,30.68-.37,41.93,14.18-27.88,30.94-42.39,49.43-58.79-17.26,21.13-31.96,43.56-39.24,66.93,54.38-13.23,92.64-47.29,92.64-135.46h-.01ZM148.5,197.09c0,88.18,38.26,122.24,92.63,135.46-7.26-23.37-21.96-45.8-39.23-66.93,18.48,16.39,35.25,30.91,49.43,58.79-.07-11.25-.19-39.37-.37-41.93-4.35-61-37.15-85.39-102.46-85.39Z"/>
  <path class="cls-1" d="M256,146.51l13.58,13.58c1.26,1.27,2.1,2.32,2.1,3.49-.01,1.18-.84,2.22-2.1,3.5l-13.58,13.58-13.58-13.58c-1.26-1.27-2.08-2.32-2.09-3.5,0-1.17.83-2.22,2.09-3.49l13.58-13.58ZM256,122.82l-32.43,32.43c-3.04,3.03-5,5.55-5,8.34s1.97,5.31,5,8.34c10.81,10.81,30.99,27.24,32.43,32.43,1.22-4.35,15.57-16.6,26.56-26.81l2.45-2.29c3.33-3.35,7.11,1.4,4.12,4.38-.5.47-1.07.98-1.59,1.45-13.27,12.01-30.95,27.38-31.54,41.3-.71-16.95-26.9-36.14-39.43-48.68-2.36-2.34-4.17-4.44-5.18-6.54v.02c-7.34,7.27-9.74,14.32-1.08,22.98,15.73,15.73,44.62,33.95,45.69,66.93.67-20.4,11.98-35.15,24.24-47.16,1.65-1.62,3.32-3.19,4.99-4.71.34-.31.67-.62,1.01-.93,1.44-1.31,2.88-2.61,4.28-3.85,4.03-3.58,7.91-7,11.17-10.26,8.65-8.65,6.25-15.7-1.08-22.98v-.02h0s-12.75-12.51-12.75-12.51l-31.86-31.84Z"/>
  <path class="cls-1" d="M256,110.64l-11.92-11.92c-1.12-1.12-2.05-1.85-3.07-1.85s-1.95.72-3.06,1.85l-11.93,11.92,11.93,11.93c1.11,1.11,2.04,1.83,3.06,1.83s1.95-.73,3.07-1.83l11.92-11.93Z"/>
  <path class="cls-1" d="M285.97,110.64l-11.93-11.92c-1.11-1.12-2.04-1.85-3.06-1.85s-1.95.72-3.07,1.85l-11.92,11.92,11.92,11.93c1.12,1.11,2.05,1.83,3.07,1.83s1.95-.73,3.06-1.83l11.93-11.93Z"/>
</svg>
